{"title":"40 Days And 40 Nights (2002) 720p BRrip x264 Junaid-Zia (PimpRG)","uid":8870705,"size":888035143,"categoryP":"video","categoryS":"hd___movies","magnet":"?xt=urn:btih:eb4c28ef9f43801a5849ae5169cd8f8133d27a92&amp;dn=40+Days+And+40+Nights+%282002%29+720p+BRrip+x264+Junaid-Zia+%28PimpRG%29&amp;tr=udp%3A%2F%2Ftracker.openbittorrent.com%3A80&amp;tr=udp%3A%2F%2Fopen.demonii.com%3A1337&amp;tr=udp%3A%2F%2Ftracker.coppersurfer.tk%3A6969&amp;tr=udp%3A%2F%2Fexodus.desync.com%3A6969","seeders":5,"leechers":4,"uploader":"junaidzia","files":12,"time":1378055442,"description":"IMDB : \n\n         &lt;a href=&quot; http://www.imdb.com/title/tt0243736&quot; rel=&quot;nofollow&quot; target=&quot;_NEW&quot;&gt; http://www.imdb.com/title/tt0243736&lt;/a&gt;\n\n\nDetails : \n\nGeneral\nFormat                         : Matroska\nFormat version                 : Version 4 / Version 2\nFile size                      : 837 MiB\nDuration                       : 1h 35mn\nOverall bit rate               : 1 227 Kbps\n\nVideo\nID                             : 1\nFormat                         : AVC\nFormat/Info                    : Advanced Video Codec\nFormat profile                 : &lt;a class=&quot;__cf_email__&quot; href=&quot;/cdn-cgi/l/email-protection&quot; data-cfemail=&quot;581539313618146b7669&quot;&gt;[email&amp;#160;protected]&lt;/a&gt;&lt;script cf-hash='f9e31' type=&quot;text/javascript&quot;&gt;\n/* &lt;![CDATA[ */!function(){try{var t=&quot;currentScript&quot;in document?document.currentScript:function(){for(var t=document.getElementsByTagName(&quot;script&quot;),e=t.length;e--;)if(t[e].getAttribute(&quot;cf-hash&quot;))return t[e]}();if(t&amp;&amp;t.previousSibling){var e,r,n,i,c=t.previousSibling,a=c.getAttribute(&quot;data-cfemail&quot;);if(a){for(e=&quot;&quot;,r=parseInt(a.substr(0,2),16),n=2;a.length-n;n+=2)i=parseInt(a.substr(n,2),16)^r,e+=String.fromCharCode(i);e=document.createTextNode(e),c.parentNode.replaceChild(e,c)}}}catch(u){}}();/* ]]&gt; */&lt;/script&gt;\nFormat settings, CABAC         : Yes\nFormat settings, ReFrames      : 5 frames\nCodec ID                       : V_MPEG4/ISO/AVC\nDuration                       : 1h 35mn\nBit rate                       : 1 098 Kbps\nWidth                          : 1 280 pixels\nHeight                         : 720 pixels\nDisplay aspect ratio           : 16:9\nFrame rate mode                : Constant\nFrame rate                     : 23.976 fps\nColor space                    : YUV\nChroma subsampling             : 4:2:0\nBit depth                      : 8 bits\nScan type                      : Progressive\nBits/(Pixel*Frame)             : 0.050\nStream size                    : 733 MiB (88%)\nTitle                          : Encoder Junaid-Zia\nLanguage                       : English\nDefault                        : Yes\nForced                         : No\n\nAudio\nID                             : 2\nFormat                         : AC-3\nFormat/Info                    : Audio Coding 3\nMode extension                 : CM (complete main)\nFormat settings, Endianness    : Big\nCodec ID                       : A_AC3\nDuration                       : 1h 35mn\nBit rate mode                  : Constant\nBit rate                       : 128 Kbps\nChannel(s)                     : 2 channels\nChannel positions              : Front: L R\nSampling rate                  : 48.0 KHz\nBit depth                      : 16 bits\nCompression mode               : Lossy\nStream size                    : 87.3 MiB (10%)\nTitle                          : Encoder Junaid-Zia\nLanguage                       : English\nDefault                        : Yes\nForced                         : No\n\nText\nID                             : 3\nFormat                         : UTF-8\nCodec ID                       : S_TEXT/UTF8\nCodec ID/Info                  : UTF-8 Plain Text\nTitle                          : English Subtitles are Softcoded\nLanguage                       : English\nDefault                        : Yes\nForced                         : No\n\n\nScreens : \n &lt;a href=&quot;\nhttp://imageshack.us/scaled/thumb/513/8urt.jpg&quot; rel=&quot;nofollow&quot; target=&quot;_NEW&quot;&gt;\nhttp://imageshack.us/scaled/thumb/513/8urt.jpg&lt;/a&gt; &lt;a href=&quot;\nhttp://imageshack.us/scaled/thumb/513/shmq.jpg&quot; rel=&quot;nofollow&quot; target=&quot;_NEW&quot;&gt;\nhttp://imageshack.us/scaled/thumb/513/shmq.jpg&lt;/a&gt; &lt;a href=&quot;\nhttp://imageshack.us/scaled/thumb/10/tlis.jpg&quot; rel=&quot;nofollow&quot; target=&quot;_NEW&quot;&gt;\nhttp://imageshack.us/scaled/thumb/10/tlis.jpg&lt;/a&gt; &lt;a href=&quot;\nhttp://imageshack.us/scaled/thumb/29/r7bw.jpg&quot; rel=&quot;nofollow&quot; target=&quot;_NEW&quot;&gt;\nhttp://imageshack.us/scaled/thumb/29/r7bw.jpg&lt;/a&gt; &lt;a href=&quot;\nhttp://imageshack.us/scaled/thumb/266/oir7.jpg&quot; rel=&quot;nofollow&quot; target=&quot;_NEW&quot;&gt;\nhttp://imageshack.us/scaled/thumb/266/oir7.jpg&lt;/a&gt; &lt;a href=&quot;\nhttp://imageshack.us/scaled/thumb/834/6bc7.jpg&quot; rel=&quot;nofollow&quot; target=&quot;_NEW&quot;&gt;\nhttp://imageshack.us/scaled/thumb/834/6bc7.jpg&lt;/a&gt; &lt;a href=&quot;\nhttp://imageshack.us/scaled/thumb/15/wn9l.jpg&quot; rel=&quot;nofollow&quot; target=&quot;_NEW&quot;&gt;\nhttp://imageshack.us/scaled/thumb/15/wn9l.jpg&lt;/a&gt;\n\n[b]Seed After Downloading, Remember Sharing is Caring.[/b]","torrent":{"xt":"urn:btih:eb4c28ef9f43801a5849ae5169cd8f8133d27a92","amp;dn":"40+Days+And+40+Nights+%282002%29+720p+BRrip+x264+Junaid-Zia+%28PimpRG%29","amp;tr":["udp%3A%2F%2Ftracker.openbittorrent.com%3A80","udp%3A%2F%2Fopen.demonii.com%3A1337","udp%3A%2F%2Ftracker.coppersurfer.tk%3A6969","udp%3A%2F%2Fexodus.desync.com%3A6969"],"infoHash":"eb4c28ef9f43801a5849ae5169cd8f8133d27a92","infoHashBuffer":{"type":"Buffer","data":[235,76,40,239,159,67,128,26,88,73,174,81,105,205,143,129,51,210,122,146]},"announce":[],"urlList":[]}}